# xmcd CD database file
#
# Track frame offsets:
#	150
#	21600
#	40905
#
# Disc length: 679 seconds
#
# Revision: 0
# Processed by: cddbd v1.5PL3 Copyright (c) Steve Scherf et al.
# Submitted via: CDex 1.50beta10
#
DISCID=2202a503
DTITLE=Buzy - 鯨
DYEAR=2004
DGENRE=JPop
TTITLE0=鯨
TTITLE1=コスモスの咲く頃に
TTITLE2=Venus Say･･･
EXTD=YEAR: 2004
EXTT0=
EXTT1=
EXTT2=
PLAYORDER=
